<svg width="90" height="64" viewBox="0 0 90 64" fill="none" xmlns="http://www.w3.org/2000/svg">
<g clip-path="url(#clip0_621_2222)">
<path d="M4.94379 63.0977L3.62366 59.1716H3.16965L1.84282 63.0891L0.554522 59.1716H0L1.5865 63.9669H2.07234L3.39079 60.0563L4.70924 63.9669H5.19508L6.77488 59.1716H6.24716L4.94379 63.0977Z" fill="#86A2BA"/>
<path d="M9.59565 61.783H11.9762V61.2838H9.59565V59.6779H12.2577V59.1719H9.07129V63.9672H12.3532V63.4611H9.59565V61.783Z" fill="#86A2BA"/>
<path d="M15.4612 59.1719H14.9385V63.9672H18.0344V63.4611H15.4612V59.1719Z" fill="#86A2BA"/>
<path d="M20.7919 59.1719H20.2676V63.9672H23.3652V63.4611H20.7919V59.1719Z" fill="#86A2BA"/>
<path d="M28.9107 62.9637L26.0208 59.1719H25.5986V63.9672H26.123V60.1736L29.0196 63.9672H29.435V59.1719H28.9107V62.9637Z" fill="#86A2BA"/>
<path d="M32.914 61.783H35.2946V61.2838H32.914V59.6779H35.5761V59.1719H32.3896V63.9672H35.6715V63.4611H32.914V61.783Z" fill="#86A2BA"/>
<path d="M40.6295 61.6625C40.457 61.5712 40.2677 61.4972 40.0683 61.4421C39.8723 61.3871 39.6729 61.3354 39.4719 61.2872C39.2792 61.2408 39.1 61.184 38.9375 61.1151C38.7867 61.0514 38.6644 60.9654 38.5756 60.8604C38.4919 60.7605 38.45 60.628 38.45 60.4559C38.45 60.3061 38.4902 60.1702 38.5672 60.0497C38.646 59.9292 38.7699 59.8294 38.9392 59.7553C39.1134 59.6779 39.3379 59.64 39.6093 59.64C39.8003 59.64 39.9996 59.671 40.204 59.7312C40.4084 59.7915 40.6027 59.8862 40.7786 60.0101L40.8758 60.0772L41.0819 59.6228L41.0165 59.5729C40.8373 59.4404 40.6211 59.3336 40.3715 59.2562C40.1236 59.1787 39.8689 59.1409 39.6126 59.1409C39.234 59.1409 38.9157 59.2011 38.6694 59.3216C38.4198 59.4438 38.2305 59.6073 38.1099 59.807C37.9893 60.0066 37.929 60.227 37.929 60.4645C37.929 60.7244 37.9859 60.9413 38.0965 61.1082C38.2054 61.2735 38.3528 61.4043 38.5321 61.4989C38.7029 61.5884 38.8939 61.6642 39.1 61.7192C39.301 61.7743 39.5004 61.826 39.6964 61.8742C39.8874 61.9206 40.065 61.9792 40.2241 62.0463C40.3749 62.11 40.4989 62.196 40.5893 62.301C40.6748 62.4009 40.7166 62.5334 40.7166 62.7055C40.7166 62.8518 40.6781 62.9809 40.5977 63.0997C40.5173 63.2184 40.3916 63.3148 40.2191 63.3888C40.0432 63.4646 39.8103 63.5024 39.5255 63.5024C39.2407 63.5024 38.9693 63.4491 38.718 63.3424C38.465 63.2374 38.2657 63.1066 38.1233 62.9551L38.0345 62.8604L37.7832 63.2873L37.8335 63.3441C38.006 63.5386 38.2489 63.6987 38.5572 63.8209C38.8621 63.9413 39.1904 64.0016 39.5339 64.0016C39.9175 64.0016 40.2375 63.9431 40.4854 63.826C40.7384 63.7073 40.9311 63.5437 41.055 63.3424C41.179 63.141 41.2427 62.9207 41.2427 62.6883C41.2427 62.4318 41.1857 62.2167 41.0718 62.0532C40.9612 61.8914 40.8138 61.7623 40.6345 61.6659L40.6295 61.6625Z" fill="#86A2BA"/>
<path d="M46.111 61.6625C45.9384 61.5712 45.7508 61.4972 45.5497 61.4421C45.3521 61.3871 45.1544 61.3354 44.9517 61.2872C44.759 61.2408 44.5798 61.184 44.4172 61.1151C44.2665 61.0514 44.1442 60.9654 44.0554 60.8604C43.9716 60.7605 43.9297 60.628 43.9297 60.4542C43.9297 60.3044 43.9699 60.1684 44.047 60.048C44.1258 59.9275 44.2497 59.8276 44.4189 59.7536C44.5932 59.6762 44.8193 59.6383 45.089 59.6383C45.28 59.6383 45.4794 59.6693 45.6838 59.7295C45.8882 59.7898 46.0808 59.8827 46.2584 60.0084L46.3556 60.0755L46.5599 59.6211L46.4946 59.5712C46.3154 59.4387 46.0992 59.3319 45.8496 59.2545C45.6017 59.177 45.347 59.1392 45.0907 59.1392C44.7104 59.1392 44.3938 59.1994 44.1492 59.3199C43.8979 59.4421 43.7103 59.6039 43.5897 59.8053C43.4707 60.0049 43.4087 60.2252 43.4087 60.4628C43.4087 60.7227 43.4657 60.9396 43.5763 61.1065C43.6851 61.2717 43.8309 61.4026 44.0118 61.4972C44.1827 61.5885 44.3737 61.6625 44.5798 61.7175C44.7808 61.7726 44.9801 61.8243 45.1762 61.8725C45.3655 61.9189 45.543 61.9774 45.7039 62.0446C45.8546 62.1083 45.9769 62.1943 46.0691 62.2993C46.1545 62.3974 46.1981 62.5334 46.1981 62.7038C46.1981 62.8501 46.1595 62.9792 46.0791 63.098C45.9987 63.2167 45.8714 63.3131 45.7005 63.3871C45.5246 63.4629 45.2918 63.5007 45.0086 63.5007C44.7255 63.5007 44.4524 63.4474 44.1995 63.3407C43.9482 63.2357 43.7471 63.1048 43.6047 62.9534L43.5159 62.8587L43.2646 63.2856L43.3149 63.3424C43.4875 63.5369 43.7304 63.6969 44.0386 63.8191C44.3435 63.9396 44.6719 63.9999 45.0153 63.9999C45.399 63.9999 45.719 63.9414 45.9669 63.8243C46.2199 63.7055 46.4108 63.542 46.5365 63.3407C46.6605 63.1393 46.7241 62.919 46.7241 62.6866C46.7241 62.4301 46.6672 62.2167 46.5532 62.0515C46.4427 61.8897 46.2953 61.7606 46.1143 61.6659L46.111 61.6625Z" fill="#86A2BA"/>
<path d="M56.183 59.8311C55.9653 59.6125 55.7056 59.4404 55.4124 59.3199C55.1192 59.1994 54.7959 59.1392 54.4525 59.1392C54.109 59.1392 53.7874 59.1994 53.4925 59.3199C53.1993 59.4404 52.9397 59.6125 52.7202 59.8345C52.5008 60.0548 52.3299 60.3148 52.2093 60.6091C52.0903 60.9034 52.0283 61.227 52.0283 61.5695C52.0283 61.912 52.0886 62.2356 52.2093 62.53C52.3282 62.8243 52.5008 63.0842 52.7202 63.3045C52.9397 63.5248 53.1993 63.6987 53.4925 63.8191C53.7857 63.9396 54.1074 63.9999 54.4525 63.9999C54.7976 63.9999 55.1192 63.9396 55.4124 63.8191C55.7056 63.6987 55.9636 63.5265 56.183 63.3079C56.3992 63.0894 56.57 62.8312 56.6923 62.5368C56.8146 62.2425 56.8766 61.9172 56.8766 61.5695C56.8766 61.2218 56.8146 60.8965 56.6923 60.6005C56.57 60.3079 56.3975 60.048 56.183 59.8311ZM56.3455 61.5695C56.3455 61.8415 56.297 62.0979 56.2031 62.3303C56.1077 62.5627 55.9753 62.7675 55.8061 62.9396C55.6369 63.1135 55.4359 63.2494 55.208 63.3441C54.7507 63.5351 54.1576 63.5351 53.6986 63.3441C53.4707 63.2494 53.268 63.1135 53.0955 62.9396C52.9246 62.7658 52.7906 62.5609 52.6968 62.3303C52.6029 62.0997 52.5544 61.8432 52.5544 61.5695C52.5544 61.2958 52.6029 61.0342 52.6968 60.8053C52.7906 60.5764 52.9246 60.3716 53.0955 60.1994C53.2664 60.0256 53.4691 59.8896 53.6969 59.7949C53.9281 59.7003 54.1811 59.6521 54.4508 59.6521C54.7205 59.6521 54.9752 59.7003 55.2047 59.7949C55.4325 59.8896 55.6335 60.0256 55.8028 60.1994C55.972 60.3733 56.1043 60.5764 56.1998 60.807C56.2936 61.0359 56.3422 61.2941 56.3422 61.5712L56.3455 61.5695Z" fill="#86A2BA"/>
<path d="M62.7163 62.9637L59.8265 59.1719H59.4043V63.9672H59.9287V60.1736L62.8252 63.9672H63.2407V59.1719H62.7163V62.9637Z" fill="#86A2BA"/>
<path d="M70.0711 60.1994C70.2419 60.0256 70.4463 59.8896 70.6758 59.7949C71.1215 59.6125 71.676 59.6039 72.1384 59.7726C72.3562 59.8535 72.5572 59.9843 72.7381 60.165L72.8102 60.2373L73.1486 59.8776L73.0832 59.807C72.8772 59.5815 72.6276 59.4128 72.3394 59.3027C72.0563 59.1942 71.7464 59.1392 71.4214 59.1392C71.0779 59.1392 70.7563 59.1994 70.4648 59.3199C70.1733 59.4404 69.9153 59.6108 69.6941 59.8311C69.4763 60.0497 69.3038 60.3079 69.1832 60.6022C69.0642 60.8948 69.0039 61.2201 69.0039 61.5695C69.0039 61.9189 69.0642 62.2442 69.1832 62.5368C69.3038 62.8312 69.4747 63.0894 69.6908 63.3079C69.9086 63.5265 70.1682 63.6987 70.4614 63.8191C70.7546 63.9396 71.0762 63.9999 71.4197 63.9999C71.7631 63.9999 72.0546 63.9431 72.3394 63.8329C72.6276 63.721 72.8772 63.5489 73.0816 63.3252L73.1469 63.2546L72.8068 62.8931L72.7348 62.9671C72.5555 63.1513 72.3528 63.2856 72.1367 63.3665C71.6743 63.5369 71.1164 63.5265 70.6742 63.3458C70.443 63.2511 70.2403 63.1152 70.0694 62.9413C69.8985 62.7675 69.7645 62.5627 69.669 62.332C69.5752 62.1014 69.5266 61.8449 69.5266 61.5712C69.5266 61.2976 69.5752 61.0411 69.669 60.8105C69.7628 60.5798 69.8968 60.375 70.0694 60.2012L70.0711 60.1994Z" fill="#86A2BA"/>
<path d="M76.8218 59.1719L74.6758 63.9672H75.2454L75.815 62.6746H78.2793L78.8523 63.9672H79.4219L77.2758 59.1719H76.8235H76.8218ZM78.0649 62.1892H76.0311L77.0463 59.8896L78.0649 62.1892Z" fill="#86A2BA"/>
<path d="M82.0976 59.1719H81.5732V63.9672H84.6709V63.4611H82.0976V59.1719Z" fill="#86A2BA"/>
<path d="M87.427 63.4611V59.1719H86.9043V63.9672H90.0002V63.4611H87.427Z" fill="#86A2BA"/>
<path d="M5.05966 52.6295L0.00195312 37.0852H2.22842L6.87567 51.4298H5.75155L10.5714 37.0852H12.5599L17.2709 51.4298H16.1903L20.9012 37.0852H22.9551L17.8974 52.6295H15.6274L11.218 39.328H11.801L7.36989 52.6295H5.05798H5.05966Z" fill="white"/>
<path d="M29.5253 52.7621C28.3006 52.7621 27.2234 52.5039 26.2936 51.9859C25.3639 51.4678 24.6435 50.7569 24.1325 49.8533C23.6216 48.9496 23.3652 47.9135 23.3652 46.7448C23.3652 45.576 23.6132 44.5382 24.1107 43.6362C24.6083 42.7326 25.2918 42.0269 26.1646 41.5157C27.0358 41.0045 28.0192 40.7498 29.1148 40.7498C30.2105 40.7498 31.2039 41.0011 32.055 41.5054C32.9043 42.008 33.5711 42.7154 34.0536 43.6259C34.5361 44.5364 34.7773 45.5984 34.7773 46.8119C34.7773 46.9014 34.774 47.0047 34.7673 47.1234C34.7606 47.2422 34.7488 47.3523 34.7354 47.4573H24.9886V45.9255H33.6549L32.8122 46.459C32.8256 45.7034 32.6748 45.0304 32.3582 44.4383C32.0416 43.8462 31.6043 43.3832 31.0515 43.051C30.497 42.7171 29.852 42.5519 29.1165 42.5519C28.3811 42.5519 27.7545 42.7188 27.1933 43.051C26.6321 43.3849 26.1915 43.8497 25.8748 44.4504C25.5582 45.0494 25.399 45.7344 25.399 46.5038V46.8584C25.399 47.6432 25.5749 48.342 25.9284 48.9565C26.2819 49.571 26.7745 50.0478 27.4094 50.3886C28.0426 50.7294 28.7714 50.8998 29.5923 50.8998C30.2691 50.8998 30.8856 50.781 31.4401 50.5452C31.9947 50.3094 32.4805 49.9531 32.8993 49.4798L34.0452 50.8567C33.5259 51.4781 32.8809 51.9532 32.1103 52.2785C31.3396 52.6038 30.4785 52.7673 29.527 52.7673L29.5253 52.7621Z" fill="white"/>
<path d="M37.6523 52.6296V36.1523H39.7264V52.6296H37.6523Z" fill="white"/>
<path d="M43.6816 52.6296V36.1523H45.7557V52.6296H43.6816Z" fill="white"/>
<path d="M48.6091 52.6295V51.2526L55.9569 41.8823L56.3674 42.6155H48.7381V40.8616H58.0309V42.2609L50.6831 51.6088L50.2073 50.8756H58.2035V52.6295H48.6074H48.6091Z" fill="white"/>
<path d="M68.1045 52.8068C66.9519 52.8068 65.8814 52.6072 64.8946 52.2078C63.9079 51.8085 63.0535 51.2491 62.3331 50.5314C61.6127 49.8136 61.0515 48.9737 60.6478 48.0115C60.244 47.0494 60.043 45.9977 60.043 44.8582C60.043 43.7188 60.244 42.6671 60.6478 41.705C61.0515 40.7428 61.6127 39.9029 62.3331 39.1851C63.0535 38.4674 63.9028 37.908 64.8829 37.5087C65.8629 37.1093 66.9368 36.9097 68.1028 36.9097C69.2688 36.9097 70.3175 37.1059 71.2909 37.4983C72.2642 37.8908 73.1136 38.445 73.8407 39.1645C74.5677 39.8822 75.1306 40.7222 75.526 41.6843C75.9231 42.6465 76.1207 43.705 76.1207 44.86C76.1207 46.0149 75.9231 47.0734 75.526 48.0356C75.129 48.9978 74.5677 49.8377 73.8407 50.5555C73.1119 51.2732 72.2625 51.8292 71.2909 52.2216C70.3175 52.614 69.2554 52.8103 68.1028 52.8103L68.1045 52.8068ZM68.1045 50.8309C68.9404 50.8309 69.7144 50.6828 70.4281 50.3868C71.1418 50.0907 71.76 49.6725 72.286 49.132C72.812 48.5916 73.2225 47.9582 73.5173 47.2335C73.8122 46.5089 73.9596 45.7154 73.9596 44.8582C73.9596 44.0011 73.8122 43.2076 73.5173 42.483C73.2225 41.7583 72.8104 41.1249 72.286 40.5845C71.76 40.044 71.1401 39.6257 70.4281 39.3297C69.7144 39.0336 68.9404 38.8856 68.1045 38.8856C67.2685 38.8856 66.4727 39.0336 65.7591 39.3297C65.0454 39.6257 64.4222 40.044 63.8894 40.5845C63.3567 41.1249 62.9412 41.7583 62.6464 42.483C62.3515 43.2093 62.2041 44.0011 62.2041 44.8582C62.2041 45.7154 62.3515 46.5089 62.6464 47.2335C62.9412 47.9582 63.3567 48.5916 63.8894 49.132C64.4222 49.6725 65.0454 50.0907 65.7591 50.3868C66.4727 50.6828 67.2534 50.8309 68.1045 50.8309Z" fill="white"/>
<path d="M85.2447 40.7498C86.1812 40.7498 87.0054 40.9357 87.7191 41.3057C88.4328 41.6758 88.9906 42.2386 89.3944 42.9925C89.7981 43.7481 89.9992 44.7017 89.9992 45.8566V52.6296H87.9252V46.101C87.9252 44.9616 87.6554 44.1027 87.1143 43.5244C86.5749 42.9478 85.8143 42.6586 84.8343 42.6586C84.0988 42.6586 83.4588 42.8066 82.911 43.1027C82.3632 43.3987 81.9427 43.8359 81.6462 44.4125C81.3513 44.9891 81.2039 45.7086 81.2039 46.5658V52.6279H79.1299V40.8582H81.1185V44.0338L80.7935 43.1905C81.167 42.4211 81.745 41.8221 82.5223 41.3918C83.3014 40.9632 84.2077 40.748 85.2464 40.748L85.2447 40.7498Z" fill="white"/>
<path d="M43.958 23.6151H43.953C43.2544 23.746 42.5508 23.8406 41.8421 23.8974C41.0865 23.9577 40.3243 23.9766 39.5637 23.9508C35.8295 23.8337 32.0802 22.6995 28.6844 20.6306C24.2247 17.9128 20.777 13.7319 19.1737 9.11389C22.9482 8.43401 27.0711 8.9762 30.8773 10.6527C30.688 10.0864 30.5222 9.5201 30.3814 8.95382C26.3507 7.403 22.0586 7.02606 18.1468 7.90904C17.9625 7.95035 17.8033 8.06912 17.7079 8.23779C17.614 8.40475 17.5906 8.60614 17.6459 8.79031C19.2324 14.0262 23.0051 18.7785 27.9958 21.8216C32.0819 24.314 36.7375 25.5326 41.2658 25.3226C37.1446 27.6583 32.241 28.7065 27.2955 28.2779C21.6347 27.7874 16.2889 25.3501 12.5664 21.5703C14.8096 19.9008 17.4884 18.6512 20.333 17.9558C20.5089 17.9145 20.658 17.8043 20.7519 17.646C20.8457 17.4876 20.8742 17.3 20.834 17.1227C20.7921 16.942 20.6849 16.7888 20.5307 16.6924C20.3766 16.596 20.1973 16.5633 20.0214 16.6081C16.7194 17.4136 13.6453 18.9145 11.134 20.9473C10.9849 21.0643 10.8928 21.245 10.8777 21.4395C10.8643 21.6306 10.9296 21.8234 11.0603 21.9662C15.024 26.314 20.901 29.1179 27.1833 29.6618C27.9506 29.7289 28.7279 29.7633 29.4919 29.7633C35.0387 29.7633 40.2221 28.0662 44.4757 24.8579C44.7303 24.6668 44.8224 24.3226 44.6968 24.0248C44.5712 23.7287 44.2679 23.567 43.958 23.6169V23.6151Z" fill="white"/>
<path d="M78.8692 20.9473H78.8676C76.3546 18.9163 73.2805 17.4154 69.9852 16.6081C69.8109 16.5651 69.63 16.5927 69.4759 16.689C69.3218 16.7837 69.2095 16.9421 69.1676 17.1228C69.1257 17.3018 69.1542 17.4877 69.2497 17.646C69.3435 17.8044 69.4943 17.9146 69.6685 17.9559C72.5165 18.653 75.192 19.8991 77.4352 21.5704C73.7127 25.3519 68.3685 27.7892 62.706 28.278C57.7606 28.7049 52.8587 27.6601 48.7375 25.3227C53.2591 25.5275 57.918 24.314 62.0058 21.8217C66.9998 18.7786 70.7709 14.028 72.354 8.79038C72.411 8.60793 72.3892 8.40483 72.2954 8.23271C72.1982 8.06747 72.0391 7.94871 71.8565 7.9074C68.144 7.07261 64.0948 7.36522 60.2517 8.71981C60.1194 9.2706 59.9669 9.82139 59.791 10.3722C63.408 8.91603 67.2745 8.47368 70.8312 9.11225C69.2246 13.7286 65.7785 17.9111 61.3206 20.6289C58.1057 22.5877 54.5775 23.7047 51.046 23.9199C50.2854 23.9681 49.5282 23.9715 48.7693 23.9319C47.8529 23.8889 46.9415 23.7805 46.0386 23.6118C45.7303 23.567 45.4304 23.734 45.3098 24.0232C45.1825 24.3209 45.2746 24.6634 45.5293 24.8562C49.7845 28.0628 54.9628 29.7617 60.508 29.7617C61.2837 29.7307 62.0594 29.7273 62.8216 29.6601C69.1056 29.1162 74.9826 26.3124 78.948 21.9646C79.0753 21.8252 79.1406 21.6324 79.1289 21.4379C79.1138 21.2434 79.0217 21.0661 78.8743 20.9456L78.8692 20.9473Z" fill="white"/>
<path d="M45.0003 13.6614C47.4897 13.6614 49.5152 11.5804 49.5152 9.02271C49.5152 6.46498 47.4897 4.38403 45.0003 4.38403C42.5108 4.38403 40.4854 6.46498 40.4854 9.02271C40.4854 11.5804 42.5108 13.6614 45.0003 13.6614ZM45.0003 5.76961C46.7459 5.76961 48.1666 7.2292 48.1666 9.02271C48.1666 10.8162 46.7459 12.2758 45.0003 12.2758C43.2546 12.2758 41.834 10.8162 41.834 9.02271C41.834 7.2292 43.2546 5.76961 45.0003 5.76961Z" fill="white"/>
<path d="M32.0617 10.6939C33.3098 14.2069 35.7289 18.4274 40.2388 23.0592C40.351 23.1745 40.5052 23.245 40.6559 23.245H40.6861C40.8536 23.2399 41.0111 23.1676 41.125 23.0419C41.2741 22.875 43.2694 20.6133 45.2831 16.9316C47.3001 20.6133 49.2954 22.875 49.4445 23.0419C49.5568 23.1676 49.7142 23.2399 49.8834 23.245H49.8969C50.0594 23.245 50.2152 23.1796 50.3291 23.0592C54.7518 18.5169 57.1643 14.3739 58.4341 10.9039C58.6469 10.3187 58.8295 9.75243 58.982 9.20852C60.4512 3.97602 59.312 0.642026 59.2265 0.409662C59.1361 0.154922 58.9015 -0.00170898 58.6536 -0.00170898C58.5832 -0.00170898 58.5112 0.0120607 58.4408 0.0361578C58.1242 0.158364 57.9617 0.51982 58.0756 0.846851C58.084 0.869227 58.8781 3.16877 58.2231 6.91586C57.63 10.3032 55.7051 15.5805 49.9287 21.6805C49.1815 20.7527 47.5565 18.5909 45.9901 15.5839C45.8426 15.2879 45.5645 15.1416 45.2848 15.1416C45.005 15.1416 44.7286 15.2879 44.5811 15.5839C43.0148 18.5909 41.3864 20.7527 40.6425 21.6805C34.8661 15.5822 32.9396 10.3049 32.3482 6.91586C31.6931 3.16877 32.4839 0.869227 32.4939 0.846851C32.6129 0.521541 32.4504 0.158364 32.1321 0.0361578C32.0617 0.00861832 31.9897 -0.00170898 31.9193 -0.00170898C31.668 -0.00170898 31.4351 0.153201 31.343 0.409662C31.2576 0.64719 30.0748 4.09823 31.673 9.49424C31.787 9.88496 31.9176 10.2843 32.0617 10.6922V10.6939Z" fill="white"/>
</g>
<defs>
<clipPath id="clip0_621_2222">
<rect width="90" height="64" fill="white"/>
</clipPath>
</defs>
</svg>
