<svg width="137" height="59" viewBox="0 0 137 59" fill="none" xmlns="http://www.w3.org/2000/svg">
<path d="M66.3094 46.8131H66.2994C64.9146 47.0724 63.5199 47.2601 62.1152 47.3727C60.6176 47.4921 59.1066 47.5296 57.599 47.4784C50.1971 47.2464 42.7652 44.998 36.0341 40.8971C27.1942 35.5099 20.3601 27.2226 17.1821 18.0688C24.6638 16.7212 32.8362 17.7959 40.3809 21.119C40.0057 19.9965 39.6769 18.874 39.398 17.7515C31.4083 14.6775 22.9005 13.9303 15.1465 15.6806C14.7812 15.7625 14.4658 15.9979 14.2765 16.3322C14.0905 16.6632 14.044 17.0623 14.1536 17.4274C17.2984 27.8061 24.7767 37.226 34.6692 43.258C42.7685 48.1983 51.9969 50.6138 60.9729 50.1976C52.8039 54.8274 43.084 56.9052 33.2812 56.0556C22.0603 55.0833 11.4638 50.2522 4.0851 42.7599C8.53159 39.4505 13.8415 36.9735 19.4801 35.5952C19.8288 35.5133 20.1243 35.2949 20.3103 34.981C20.4963 34.6672 20.5527 34.2953 20.473 33.9439C20.39 33.5856 20.1775 33.282 19.872 33.0909C19.5665 32.8999 19.2111 32.835 18.8624 32.9237C12.3172 34.5205 6.22367 37.4955 1.24586 41.5248C0.950311 41.7568 0.76767 42.1151 0.737783 42.5006C0.711217 42.8793 0.840725 43.2614 1.09974 43.5446C8.95664 52.1628 20.6058 57.7206 33.0587 58.7987C34.5796 58.9318 36.1204 59 37.6347 59C48.6297 59 58.9041 55.636 67.3355 49.2764C67.8402 48.8977 68.0229 48.2154 67.7738 47.6251C67.5247 47.0383 66.9237 46.7176 66.3094 46.8165V46.8131Z" fill="white"/>
<path d="M135.51 41.5248H135.507C130.526 37.4989 124.432 34.5239 117.9 32.9237C117.555 32.8384 117.196 32.893 116.891 33.0841C116.585 33.2717 116.363 33.5856 116.28 33.9438C116.197 34.2987 116.253 34.6671 116.442 34.981C116.628 35.2949 116.927 35.5133 117.272 35.5952C122.918 36.9769 128.221 39.4471 132.667 42.7599C125.289 50.2556 114.696 55.0867 103.471 56.0556C93.6685 56.9017 83.952 54.8308 75.783 50.1976C84.7457 50.6036 93.9807 48.1983 102.083 43.258C111.982 37.226 119.458 27.8095 122.596 17.4274C122.709 17.0657 122.665 16.6632 122.479 16.322C122.287 15.9944 121.971 15.759 121.609 15.6771C114.251 14.0224 106.224 14.6024 98.6065 17.2875C98.3442 18.3793 98.042 19.4711 97.6933 20.5628C104.863 17.6765 112.527 16.7996 119.577 18.0654C116.392 27.2158 109.562 35.5064 100.725 40.8937C94.3526 44.7763 87.3591 46.9905 80.359 47.417C78.8514 47.5125 77.3504 47.5193 75.8461 47.4409C74.0296 47.3556 72.2231 47.1406 70.4332 46.8063C69.8222 46.7176 69.2278 47.0485 68.9887 47.6217C68.7363 48.2119 68.919 48.8909 69.4237 49.273C77.8584 55.6292 88.1229 58.9966 99.1146 58.9966C100.652 58.9352 102.19 58.9284 103.701 58.7953C116.157 57.7172 127.806 52.1594 135.666 43.5412C135.918 43.2648 136.048 42.8827 136.025 42.4972C135.995 42.1117 135.812 41.7603 135.52 41.5214L135.51 41.5248Z" fill="white"/>
<path d="M68.3752 27.0828C73.3098 27.0828 77.3246 22.9579 77.3246 17.888C77.3246 12.8181 73.3098 8.69324 68.3752 8.69324C63.4406 8.69324 59.4258 12.8181 59.4258 17.888C59.4258 22.9579 63.4406 27.0828 68.3752 27.0828ZM68.3752 11.4397C71.8354 11.4397 74.6514 14.3329 74.6514 17.888C74.6514 21.4431 71.8354 24.3363 68.3752 24.3363C64.915 24.3363 62.099 21.4431 62.099 17.888C62.099 14.3329 64.915 11.4397 68.3752 11.4397Z" fill="white"/>
<path d="M42.7286 21.2008C45.2026 28.1643 49.9978 36.53 58.9372 45.7111C59.1597 45.9397 59.4652 46.0796 59.7641 46.0796H59.8239C60.1559 46.0693 60.4681 45.926 60.6939 45.677C60.9894 45.346 64.9445 40.863 68.936 33.5651C72.9342 40.863 76.8892 45.346 77.1848 45.677C77.4073 45.926 77.7194 46.0693 78.0548 46.0796H78.0814C78.4035 46.0796 78.7123 45.9499 78.9381 45.7111C87.7049 36.7074 92.4868 28.4952 95.0039 21.6171C95.4257 20.4571 95.7876 19.3346 96.0898 18.2565C99.0021 7.88464 96.744 1.27601 96.5746 0.815417C96.3953 0.310473 95.9304 0 95.4389 0C95.2995 0 95.1567 0.0272943 95.0172 0.0750593C94.3896 0.317296 94.0675 1.03377 94.2933 1.68201C94.3099 1.72636 95.8839 6.28451 94.5855 13.712C93.41 20.4264 89.5944 30.8869 78.1445 42.9783C76.6634 41.1393 73.4423 36.8541 70.3374 30.8937C70.0451 30.3069 69.4939 30.0169 68.9393 30.0169C68.3848 30.0169 67.8368 30.3069 67.5446 30.8937C64.4397 36.8541 61.2119 41.1393 59.7375 42.9783C48.2876 30.8903 44.4687 20.4298 43.2965 13.712C41.9981 6.28451 43.5655 1.72636 43.5854 1.68201C43.8212 1.03718 43.499 0.317296 42.8681 0.0750593C42.7286 0.0204707 42.5858 0 42.4464 0C41.9483 0 41.4867 0.307061 41.304 0.815417C41.1347 1.28624 38.7902 8.12687 41.9582 18.8228C42.184 19.5973 42.443 20.3888 42.7286 21.1974V21.2008Z" fill="white"/>
</svg>
